<?xml version="1.0" encoding="utf-8"?>
<!-- Generator: Adobe Illustrator 24.1.3, SVG Export Plug-In . SVG Version: 6.00 Build 0)  -->
<svg version="1.1" id="Layer_1" xmlns="http://www.w3.org/2000/svg" xmlns:xlink="http://www.w3.org/1999/xlink" x="0px" y="0px"
	 viewBox="0 0 635.23 90.4" style="enable-background:new 0 0 635.23 90.4;" xml:space="preserve">
<style type="text/css">
	.st0{fill:#2C333A;}
	.st1{fill:#00838F;}
</style>
<g>
	<path class="st0" d="M121.43,51.2v30.1h-18.4v-27c0-7.6-3.3-10.8-8.6-10.8c-5.9,0-10.5,3.7-10.5,12.4v25.4h-18.6V28.7h17.6v5.7
		c4.2-4.4,10.1-6.6,16.7-6.6C111.93,27.9,121.43,34.9,121.43,51.2"/>
	<path class="st0" d="M128.73,76.8l5.5-12.6c4.9,3,11.9,4.9,18.3,4.9c6.2,0,8.3-1.4,8.3-3.6c0-7.1-31.1,1-31.1-20.1
		c0-9.9,9.1-17.5,25.6-17.5c7.4,0,15.5,1.6,20.8,4.5l-5.5,12.5c-5.2-2.9-10.5-3.9-15.1-3.9c-6.2,0-8.4,1.7-8.4,3.7
		c0,7.3,31-0.6,31,20.3c0,9.7-8.9,17.3-26,17.3C143.13,82.2,133.93,80,128.73,76.8"/>
	<path class="st0" d="M222.33,79.2c-3.2,2-8,3-12.8,3c-13.5,0-21.4-6.6-21.4-20.1V44.5h-7.6V30.7h7.7V17h18.4v13.7h12v13.8h-12V62
		c0,3.9,2.2,6,5.5,6c2,0,4.1-0.6,5.6-1.6L222.33,79.2z"/>
	<path class="st0" d="M227.33,13.1c0-5.5,4.5-9.8,11.3-9.8s11.3,4,11.3,9.5c0,5.8-4.5,10.1-11.3,10.1
		C231.83,22.9,227.33,18.6,227.33,13.1 M229.43,28.7h18.4v52.6h-18.4V28.7z"/>
	<path class="st0" d="M315.83,51.2v30.1h-18.4v-27c0-7.6-3.3-10.8-8.6-10.8c-5.9,0-10.5,3.7-10.5,12.4v25.4h-18.4V28.7h17.6v5.7
		c4.2-4.4,10.1-6.6,16.7-6.6C306.43,27.9,315.83,34.9,315.83,51.2"/>
	<path class="st0" d="M324.83,54.9c0-15.8,12.5-27.1,30.2-27.1c11.9,0,21.1,5.3,24.7,14.5l-14.3,7.3c-2.5-4.9-6.2-7.1-10.5-7.1
		c-6.4,0-11.5,4.5-11.5,12.4c0,8.2,5,12.6,11.5,12.6c4.3,0,8-2.1,10.5-7.1l14.3,7.3c-3.6,9.1-12.7,14.5-24.7,14.5
		C337.33,82.2,324.83,71,324.83,54.9"/>
	<path class="st0" d="M423.83,79.2c-3.2,2-8,3-12.8,3c-13.5,0-21.4-6.6-21.4-20.1V44.5h-7.7V30.7h7.7V17h18.4v13.7h12v13.8h-12V62
		c0,3.9,2.2,6,5.5,6c2,0,4.1-0.6,5.6-1.6L423.83,79.2z"/>
	<polygon class="st1" points="496.43,13.4 496.43,81.3 477.23,81.3 477.23,54.8 451.03,54.8 451.03,81.3 431.83,81.3 431.83,13.4 
		451.03,13.4 451.03,38.9 477.23,38.9 477.23,13.4 	"/>
	<path class="st1" d="M564.53,28.7v52.6h-17.6v-5.6c-4,4.4-9.6,6.5-15.6,6.5c-12.9,0-22.3-7.4-22.3-24.1V28.7h18.4v26.4
		c0,8.2,3.2,11.4,8.7,11.4c5.4,0,9.9-3.6,9.9-12.4V28.7H564.53z"/>
	<path class="st1" d="M635.23,54.9c0,16.8-11.6,27.3-25.8,27.3c-6.9,0-12-1.9-15.5-6.1v5.2h-17.6v-72h18.4v24
		c3.6-3.7,8.5-5.4,14.7-5.4C623.73,27.9,635.23,38.2,635.23,54.9 M616.63,54.9c0-8-4.9-12.4-11.1-12.4c-6.2,0-11.1,4.5-11.1,12.4
		c0,8.1,4.9,12.6,11.1,12.6C611.73,67.6,616.63,63,616.63,54.9"/>
</g>
<g>
	<path class="st1" d="M12.1,34.4c-0.22-1.08-0.33-2.19-0.33-3.3c0-9.02,7.34-16.36,16.36-16.36c1.06,0,2.12,0.1,3.16,0.31
		l-1.15,5.89c-0.65-0.13-1.33-0.19-2-0.19c-5.71,0-10.36,4.65-10.36,10.36c0,0.71,0.07,1.41,0.21,2.09L12.1,34.4z"/>
</g>
<g>
	<path class="st1" d="M28.08,58.51C13,58.51,0.73,46.24,0.73,31.16S13,3.81,28.08,3.81c15.08,0,27.35,12.27,27.35,27.35
		S43.16,58.51,28.08,58.51z M28.08,9.81c-11.77,0-21.35,9.58-21.35,21.35s9.58,21.35,21.35,21.35s21.35-9.58,21.35-21.35
		S39.85,9.81,28.08,9.81z"/>
</g>
<rect x="15.73" y="40.5" class="st0" width="24.7" height="39.3"/>
</svg>
